<?xml version="1.0" standalone="no"?>
<!DOCTYPE svg PUBLIC "-//W3C//DTD SVG 1.0//EN" "http://www.w3.org/TR/2001/REC-SVG-20010904/DTD/svg10.dtd">
<svg xmlns="http://www.w3.org/2000/svg" xmlns:xlink="http://www.w3.org/1999/xlink" id="body_1" width="2048" height="1536">

<g transform="matrix(1.2274058 0 0 1.2274058 -0 18.5523)">
    <path d="M1315.61 610.6C 1315.6101 743.5156 1268.6173 856.9662 1174.6317 950.95166C 1080.6462 1044.9373 967.1957 1091.9299 834.28 1091.9299C 701.36444 1091.9299 587.9139 1044.9373 493.92834 950.95166C 399.9428 856.9662 352.95004 743.5156 352.95004 610.6C 352.95004 477.6844 399.9428 364.23383 493.92834 270.2483C 587.9139 176.26276 701.36444 129.26999 834.28 129.26999C 967.1957 129.26999 1080.6462 176.26276 1174.6317 270.2483C 1268.6173 364.23383 1315.6101 477.6844 1315.61 610.6C 1315.6101 616.2011 1315.5123 621.80054 1315.3168 627.39813" stroke="none" fill="#1D9BF0" fill-rule="nonzero" />
	<g transform="matrix(1 0 0 1 52.390087 -25.058598)">
        <path d="M485.39 356.79L715.46 664.41003L483.94 914.52L536.05 914.52L738.75 695.54004L902.52 914.52L1079.8401 914.52L836.82 589.6L1052.3201 356.78998L1000.2101 356.78998L813.54 558.46L662.71 356.79L485.39 356.79zM562.02 395.17L643.48004 395.17L1003.2001 876.14L921.74005 876.14L562.02 395.17z" stroke="none" fill="#FFFFFF" fill-rule="nonzero" />
	</g>
</g>
</svg>